<svg width="26" height="26" viewBox="0 0 26 26" fill="none" xmlns="http://www.w3.org/2000/svg">
  <path d="M10.2591 16.5532C10.0532 16.5532 9.84741 16.4774 9.68491 16.3149C8.79658 15.4266 8.30908 14.2457 8.30908 12.9999C8.30908 10.4107 10.4107 8.30908 12.9999 8.30908C14.2457 8.30908 15.4266 8.79658 16.3149 9.68491C16.4666 9.83658 16.5532 10.0424 16.5532 10.2591C16.5532 10.4757 16.4666 10.6816 16.3149 10.8332L10.8332 16.3149C10.6707 16.4774 10.4649 16.5532 10.2591 16.5532ZM12.9999 9.93408C11.3099 9.93408 9.93408 11.3099 9.93408 12.9999C9.93408 13.5416 10.0749 14.0616 10.3349 14.5166L14.5166 10.3349C14.0616 10.0749 13.5416 9.93408 12.9999 9.93408Z" fill="#292D32"/>
  <path d="M6.06674 20.0527C5.88257 20.0527 5.68757 19.9877 5.53591 19.8577C4.37674 18.8719 3.33674 17.6585 2.44841 16.2502C1.30007 14.4627 1.30007 11.5485 2.44841 9.75018C5.09174 5.61185 8.93757 3.22852 13.0001 3.22852C15.3834 3.22852 17.7342 4.05185 19.7926 5.60102C20.1501 5.87185 20.2259 6.38102 19.9551 6.73852C19.6842 7.09602 19.1751 7.17185 18.8176 6.90102C17.0409 5.55768 15.0259 4.85352 13.0001 4.85352C9.50091 4.85352 6.15341 6.95518 3.81341 10.6277C3.00091 11.8952 3.00091 14.1052 3.81341 15.3727C4.62591 16.6402 5.55757 17.7344 6.58674 18.6227C6.92257 18.9152 6.96591 19.4244 6.67341 19.771C6.52174 19.9552 6.29424 20.0527 6.06674 20.0527Z" fill="#292D32"/>
  <path d="M13 22.7715C11.5592 22.7715 10.1509 22.479 8.79669 21.9048C8.38503 21.7315 8.19003 21.2548 8.36336 20.8431C8.53669 20.4315 9.01336 20.2365 9.42503 20.4098C10.5734 20.8973 11.7759 21.1465 12.9892 21.1465C16.4884 21.1465 19.8359 19.0448 22.1759 15.3723C22.9884 14.1048 22.9884 11.8948 22.1759 10.6273C21.84 10.0965 21.4717 9.58729 21.0817 9.11063C20.8 8.76396 20.8542 8.25479 21.2009 7.96229C21.5475 7.68063 22.0567 7.72396 22.3492 8.08146C22.7717 8.60146 23.1834 9.16479 23.5517 9.74979C24.7 11.5373 24.7 14.4515 23.5517 16.2498C20.9084 20.3881 17.0625 22.7715 13 22.7715Z" fill="#292D32"/>
  <path d="M13.7475 17.6257C13.3684 17.6257 13.0217 17.3549 12.9459 16.9649C12.8592 16.5207 13.1517 16.0982 13.5959 16.0224C14.7875 15.8057 15.7842 14.8091 16.0009 13.6174C16.0875 13.1732 16.51 12.8916 16.9542 12.9674C17.3984 13.0541 17.6909 13.4766 17.6042 13.9207C17.2575 15.7949 15.7625 17.2791 13.8992 17.6257C13.845 17.6149 13.8017 17.6257 13.7475 17.6257Z" fill="#292D32"/>
  <path d="M2.16673 24.6459C1.96089 24.6459 1.75506 24.5701 1.59256 24.4076C1.27839 24.0934 1.27839 23.5734 1.59256 23.2593L9.68506 15.1668C9.99922 14.8526 10.5192 14.8526 10.8334 15.1668C11.1476 15.4809 11.1476 16.0009 10.8334 16.3151L2.74089 24.4076C2.57839 24.5701 2.37256 24.6459 2.16673 24.6459Z" fill="#292D32"/>
  <path d="M15.7409 11.0717C15.5351 11.0717 15.3293 10.9959 15.1668 10.8334C14.8526 10.5192 14.8526 9.99922 15.1668 9.68506L23.2593 1.59256C23.5734 1.27839 24.0934 1.27839 24.4076 1.59256C24.7218 1.90673 24.7218 2.42673 24.4076 2.74089L16.3151 10.8334C16.1526 10.9959 15.9468 11.0717 15.7409 11.0717Z" fill="#292D32"/>
</svg>
